<?xml version="1.0" encoding="UTF-8" standalone="no"?>
<svg viewBox="0 0 24 24" xmlns="http://www.w3.org/2000/svg">
    <path d="M16.84 15.78l-5.72-5.72c-.19-.19-.44-.29-.71-.29s-.52.1-.71.29L8.8 11.24c-.39.39-.39 1.02 0 1.41l5.72 5.72c.19.19.44.29.71.29s.52-.1.71-.29l.9-.9c.39-.39.39-1.02 0-1.41l-5.72-5.72c-.19-.19-.44-.29-.71-.29s-.52.1-.71.29l-.9.9c-.39.39-.39 1.02 0 1.41l5.72 5.72c.19.19.44.29.71.29s.52-.1.71-.29l.9-.9c.39-.39.39-1.02 0-1.41z" fill="#009fd9"/>
    <path d="M12 2C6.48 2 2 6.48 2 12s4.48 10 10 10 10-4.48 10-10S17.52 2 12 2zm0 18c-4.41 0-8-3.59-8-8s3.59-8 8-8 8 3.59 8 8-3.59 8-8 8z" fill="#009fd9"/>
</svg> 